<svg width="262" height="35" viewBox="0 0 262 35" xmlns="http://www.w3.org/2000/svg" xmlns:xlink="http://www.w3.org/1999/xlink">
    <defs>
        <path id="shjwdt2rxa" d="M0 0h42.065v35H0z"/>
        <path id="4z9fgy0w8c" d="M0 0h15.448v16.456H0z"/>
    </defs>
    <g fill="none" fill-rule="evenodd">
        <g>
            <mask id="uhl7oxzu1b" fill="#fff">
                <use xlink:href="#shjwdt2rxa"/>
            </mask>
            <path d="M0 1.765C.031 1.708 3.14.618 6.891.28 17.364-.656 26.478.757 31.114 4.37c3.147 2.449 2.99 7.612-.27 9.607-3.665 2.246-8.07 2.448-15.628 3.213-1.765.178-4.366.419-4.366.634 0 .277 11.617 6.026 13.679 7.063 2.49 1.25 17.004 9.383 17.51 9.98.28.329-1.81-.022-2.284-.255-2.527-1.261-5.344-2.805-5.554-2.181-.21.624 1.256 1.784.21 1.784-.42 0-8.725-4.06-9.702-4.6-.773-.423-2.741-1.355-3.029-.737-.248.535.51 1.99-.19 1.813-.7-.178-12.94-5.796-16.327-8.1-3.611-2.455-4.557-5.896-2.237-7.97 3.706-3.317 8.54-2.763 15.195-3.637 2.412-.318 6.47-.917 6.428-3.095-.08-4.068-4.183-5.186-13.117-6.119-2.72-.284-4.28-.303-7.619.077-.935.105-.415-.41-1.811-.165C.814 1.89-.021 1.8 0 1.765" fill="#004B8B" mask="url(#uhl7oxzu1b)"/>
        </g>
        <path d="M60.81 26.045h-5.329l-4.039-6.332-.043 6.332h-4.28V9.579h6.401c3.25 0 5.719 1.552 5.719 5.068 0 2.27-1.267 4.234-3.605 4.648l5.176 6.75zM51.4 16.96h.415c1.398 0 2.973-.262 2.973-2.053 0-1.79-1.575-2.052-2.973-2.052h-.415v4.105zM68.728 5.454a2.13 2.13 0 0 1-2.14 2.14c-1.202 0-2.163-.94-2.163-2.14 0-1.18.961-2.141 2.162-2.141 1.18 0 2.14.962 2.14 2.14zm5.587 0c0 1.2-.96 2.14-2.139 2.14-1.2 0-2.16-.94-2.16-2.14 0-1.18.96-2.141 2.16-2.141 1.18 0 2.14.962 2.14 2.14zm4.151 12.053c0 5.327-3.82 9.084-9.107 9.084-5.282 0-9.104-3.757-9.104-9.084 0-4.978 4.366-8.473 9.104-8.473 4.739 0 9.107 3.495 9.107 8.473zm-13.756.021c0 2.838 2.096 4.912 4.65 4.912 2.553 0 4.649-2.074 4.649-4.912 0-2.273-2.096-4.345-4.65-4.345-2.553 0-4.649 2.072-4.649 4.345zm14.862-7.95h4.275l7.841 10.069.043-10.068h4.28v16.466h-4.28l-7.838-10.09-.046 10.09h-4.275V9.579zm22.634 3.627v2.75h4.824v3.628h-4.824v2.838h5.086v3.624h-9.366V9.579h9.366v3.626h-5.086zm15.888.612c-.787-.654-1.79-1.093-2.837-1.093-.789 0-1.836.46-1.836 1.377 0 .96 1.157 1.353 1.9 1.571l1.09.328c2.295.675 4.064 1.833 4.064 4.498 0 1.637-.392 3.319-1.702 4.432-1.29 1.091-3.015 1.55-4.676 1.55-2.071 0-4.106-.697-5.783-1.877l1.833-3.45c1.07.94 2.337 1.703 3.797 1.703 1.004 0 2.078-.504 2.078-1.66 0-1.2-1.683-1.613-2.6-1.876-2.687-.765-4.454-1.462-4.454-4.653 0-3.34 2.38-5.523 5.677-5.523 1.659 0 3.69.523 5.152 1.353l-1.703 3.32zm7.723 9.366-1.132 2.862h-4.544l6.334-16.466h4.673l6.199 16.466h-4.563l-1.07-2.862h-5.897zm2.993-8.516-1.812 5.242h3.559l-1.747-5.242zm8.984-5.088h4.28l7.838 10.068.044-10.068h4.282v16.466h-4.282l-7.839-10.09-.042 10.09h-4.281V9.579zm27.399 4.238c-.788-.654-1.794-1.093-2.84-1.093-.787 0-1.832.46-1.832 1.377 0 .96 1.154 1.353 1.897 1.571l1.092.328c2.291.675 4.06 1.833 4.06 4.498 0 1.637-.393 3.319-1.704 4.432-1.287 1.091-3.011 1.55-4.67 1.55-2.076 0-4.103-.697-5.786-1.877l1.833-3.45c1.071.94 2.336 1.703 3.8 1.703 1.004 0 2.072-.504 2.072-1.66 0-1.2-1.68-1.613-2.594-1.876-2.688-.765-4.46-1.462-4.46-4.653 0-3.34 2.382-5.523 5.679-5.523 1.66 0 3.692.523 5.154 1.353l-1.701 3.32zM180.725 16.439v-6.365h1.967V25.86h-1.967v-7.579h-7.516v7.58h-1.967V10.073h1.967v6.365zM193.014 24.352c.853 0 1.654-.159 2.406-.482a6.453 6.453 0 0 0 2.01-1.359 6.252 6.252 0 0 0 1.382-2.032 6.283 6.283 0 0 0 .505-2.512 6.5 6.5 0 0 0-.462-2.45 6.005 6.005 0 0 0-1.298-2.03 5.988 5.988 0 0 0-2.01-1.382 6.073 6.073 0 0 0-2.533-.523c-.923 0-1.772.176-2.556.523a6.073 6.073 0 0 0-1.986 1.382 6.017 6.017 0 0 0-1.3 2.03 6.563 6.563 0 0 0-.46 2.45c0 .894.17 1.731.503 2.512.334.781.79 1.459 1.359 2.032a6.84 6.84 0 0 0 2.013 1.36 6.175 6.175 0 0 0 2.427.481m0-14.611c1.132 0 2.2.216 3.204.648a8.068 8.068 0 0 1 2.616 1.78 8.187 8.187 0 0 1 1.78 2.616c.446.991.668 2.053.668 3.182 0 1.174-.214 2.262-.646 3.267a8.141 8.141 0 0 1-1.781 2.616 8.204 8.204 0 0 1-2.616 1.718 8.333 8.333 0 0 1-3.225.627 8.335 8.335 0 0 1-3.225-.627 8.455 8.455 0 0 1-2.637-1.718 8.273 8.273 0 0 1-1.76-2.616 8.192 8.192 0 0 1-.648-3.267c0-1.129.217-2.19.649-3.182a8.607 8.607 0 0 1 1.779-2.616 8.34 8.34 0 0 1 2.638-1.78 8.025 8.025 0 0 1 3.204-.648M205.47 24.06h4.796v1.8h-6.763V10.074h1.967zM213.677 24.06h.692c1.004 0 1.962-.099 2.867-.292.91-.21 1.704-.553 2.387-1.027a5.109 5.109 0 0 0 1.634-1.883c.404-.785.605-1.746.605-2.888 0-1.16-.201-2.125-.605-2.891a5.068 5.068 0 0 0-1.634-1.884c-.683-.475-1.478-.812-2.387-1.005a12.661 12.661 0 0 0-2.867-.316h-.692V24.06zm-1.967-13.986h3.268c1.212 0 2.35.16 3.412.482 1.074.322 2.016.809 2.824 1.466a6.67 6.67 0 0 1 1.908 2.43c.473.976.711 2.12.711 3.433 0 1.34-.23 2.51-.691 3.517-.46 1.004-1.095 1.833-1.906 2.49-.796.655-1.738 1.15-2.825 1.488-1.09.32-2.255.48-3.498.48h-3.203V10.074zM227.245 5.364c.35 0 .643.127.878.377.255.237.38.53.38.88 0 .362-.125.669-.38.92a1.18 1.18 0 0 1-.878.356c-.361 0-.67-.117-.92-.356a1.299 1.299 0 0 1-.357-.92c0-.35.12-.643.356-.88.251-.25.56-.377.921-.377zm-1.193 20.497h1.97V10.074h-1.97v15.787zM230.155 9.322l11.848 12.415V10.074h1.971v16.434l-11.848-12.415V25.86h-1.97z" fill="#58585B"/>
        <g transform="translate(246.027 9.74)">
            <mask id="22xlq2digd" fill="#fff">
                <use xlink:href="#4z9fgy0w8c"/>
            </mask>
            <path d="M15.448 8.166v.63a8.322 8.322 0 0 1-.544 3.033 7.296 7.296 0 0 1-1.549 2.427 7.035 7.035 0 0 1-2.365 1.613c-.908.39-1.912.587-3.014.587a7.618 7.618 0 0 1-3.12-.65 8.32 8.32 0 0 1-2.535-1.801 8.671 8.671 0 0 1-1.693-2.616A7.907 7.907 0 0 1 0 8.272c0-1.13.208-2.201.628-3.204A8.549 8.549 0 0 1 2.384 2.43 8.134 8.134 0 0 1 4.98.65 7.984 7.984 0 0 1 8.182 0c1.23 0 2.41.267 3.54.797a7.89 7.89 0 0 1 2.89 2.26L13.23 4.375a5.5 5.5 0 0 0-.984-1.047 5.881 5.881 0 0 0-1.193-.814A6.467 6.467 0 0 0 9.69 1.99a5.302 5.302 0 0 0-1.423-.19c-.881 0-1.702.168-2.473.503a6.279 6.279 0 0 0-2.007 1.382 6.609 6.609 0 0 0-1.34 2.03 6.486 6.486 0 0 0-.48 2.49c0 .824.158 1.63.48 2.41.32.766.754 1.45 1.299 2.053.555.6 1.207 1.08 1.947 1.44a5.433 5.433 0 0 0 2.406.545c.615 0 1.22-.116 1.821-.354a6.058 6.058 0 0 0 1.655-1.006 5.434 5.434 0 0 0 1.193-1.507 3.848 3.848 0 0 0 .502-1.82H9.189V8.166h6.26z" fill="#58585B" mask="url(#22xlq2digd)"/>
        </g>
    </g>
</svg>
